PathFileType	4	(X/Y/Z)	Patient4_TMGait_0pt6_01_left_29.trc.trc
DataRate	CameraRate	NumFrames	NumMarkers	Units	OrigDataRate	OrigDataStartFrame	OrigNumFrames
82.840236686391	82.840236686391	5	33	mm	82.840236686391	18	       141
Frame#	Time	Sacral			L.Shoulder			Chest			R.Shoulder			Neck			R.ASIS			L.ASIS			R.Thigh.Superior			R.Thigh.Lateral			R.Thigh.Inferior			R.Patella			L.Thigh.Superior			L.Thigh.Lateral			L.Thigh.Inferior			L.Patella			L.Shank.Superior			L.Shank.Lateral			L.Shank.Inferior			R.Shank.Superior			R.Shank.Lateral			R.Shank.Inferior			R.Heel			R.Midfoot.Superior			R.Midfoot.Lateral			R.Toe			L.Heel			L.Midfoot.Lateral			L.Midfoot.Superior			L.Toe			L.Elbow			L.Wrist			R.Elbow			R.Wrist			
		X1	Y1	Z1	X2	Y2	Z2	X3	Y3	Z3	X4	Y4	Z4	X5	Y5	Z5	X6	Y6	Z6	X7	Y7	Z7	X8	Y8	Z8	X9	Y9	Z9	X10	Y10	Z10	X11	Y11	Z11	X12	Y12	Z12	X13	Y13	Z13	X14	Y14	Z14	X15	Y15	Z15	X16	Y16	Z16	X17	Y17	Z17	X18	Y18	Z18	X19	Y19	Z19	X20	Y20	Z20	X21	Y21	Z21	X22	Y22	Z22	X23	Y23	Z23	X24	Y24	Z24	X25	Y25	Z25	X26	Y26	Z26	X27	Y27	Z27	X28	Y28	Z28	X29	Y29	Z29	X30	Y30	Z30	X31	Y31	Z31	X32	Y32	Z32	X33	Y33	Z33	

18	35.495214285714	721.536650374559	1004.067697687349	535.231579905330	853.199354014503	1433.615379516100	337.285713346189	990.005893211346	1362.031956391571	469.393962574325	947.155923355938	1431.029271665457	658.101946172053	868.943914006171	1489.739224786526	491.305280926397	959.675857684340	934.016954965508	612.483782332836	904.354309975795	958.707512592332	342.848145935836	956.992709895183	722.763708000889	581.757074171901	858.963062324068	626.484035189550	649.014481635031	912.441136361819	563.826591015400	562.557905875003	893.260466851538	477.974313242733	566.030983149349	983.354102559403	770.856211562301	370.550991961501	931.025104383332	643.305467706535	298.806854533950	1035.860797684901	584.318054181776	358.888118536634	1065.672412785771	526.842212413228	355.259384381672	1058.005048991129	457.867777250040	344.963035967931	1011.416932152636	318.214722521937	299.500231711009	1116.526726082997	235.808650054925	351.026890215510	855.293493270249	393.810355023415	572.911810205583	775.603214543654	297.673774860216	636.620569469949	799.877660072116	200.829559064496	567.498249461226	649.172266416025	43.641490152452	535.825773132498	821.001262735511	95.819288974627	571.315594346561	732.249126653565	36.284031946803	610.147546472083	940.832674395298	41.579646725071	598.658312873925	1064.946939125701	46.226638548703	398.769919793475	1135.201172797197	57.344109788121	316.080862530798	1193.749458952089	145.847122791230	329.439246808580	1329.265043153275	135.905355343860	301.189264539365	710.192426955024	1104.451095795120	255.403507250130	664.431494231255	849.471303794099	267.046685069319	1112.335525929045	1130.283191384347	760.084422869267	1353.332176118508	1183.147118365158	695.697205429528	
19	35.507285714286	722.207693678962	1002.961420443235	534.060941083972	851.956623056278	1432.782606167448	336.192777608496	989.265198735580	1361.611338759357	467.985326468573	946.526217079496	1430.463716870632	656.749196643578	867.797061304289	1488.816231034617	490.164008619389	960.372773306332	933.068166098036	611.008960906524	904.910430721790	957.812188422527	341.326618975437	956.401687788893	721.516970204186	580.477612365160	857.746174509108	625.719819935764	647.990071155811	910.664660766571	562.574578389061	561.563754911459	890.725729980437	476.592726422596	565.110908366829	984.432103188528	770.152781163633	368.616055312365	930.594160565343	641.348565446056	299.197880023725	1036.255071385426	583.057334083979	357.861449162740	1065.558901182726	524.942482356447	354.996508122654	1057.327402906010	455.477770325555	345.674215015707	1008.935080877061	316.170422193887	301.747686397277	1113.236565145011	233.033187338512	353.129345636726	851.834242571466	392.737444407860	572.206748652539	771.170141427988	297.639791080935	636.366210791141	794.065856318795	200.406411901036	567.304286560779	641.944138310092	43.983550042442	536.024987076019	813.886285875280	95.847834382923	571.481410690868	725.027356937500	36.302483201616	610.129757201567	933.593004421275	41.291934495719	598.712424608959	1059.277707968802	45.731594392216	402.747976917537	1128.791717971694	54.816928743730	319.279030508167	1189.567326084337	141.469880410615	331.752535340734	1324.205219824240	127.953198728900	302.173862798637	707.935322267702	1104.243849736876	255.335466090924	660.959129711514	849.491490176868	267.660229868876	1114.862921302845	1131.588990113088	757.385413868997	1354.118569681211	1190.984986625367	693.205102992262	
20	35.519357142857	723.053527287841	1001.763918324572	532.610146754223	850.701791228363	1431.859255851158	334.981000621361	988.518269594639	1361.193756276424	466.488177717551	945.799617611443	1429.828170860528	655.328265474467	866.585225146221	1487.818311383512	488.930396029137	961.190479337145	932.057634326930	609.521027307806	905.865760808813	956.852137656502	339.720729346690	955.908713114881	720.192728796744	579.242934450238	856.566958667330	624.908548142696	646.921672068505	909.039310479896	561.252703126132	560.601698998108	888.323809117443	475.113500651952	564.185433982302	986.159018654654	769.552628696688	366.733762643996	930.891250924420	639.442100980178	299.617152122527	1037.229247914140	581.797368412552	356.984217407807	1065.811341117321	522.659564297662	354.970849284625	1056.705580586638	452.552723852351	346.602375244016	1005.677388053809	313.973529319176	303.959715048588	1108.374325400897	229.378562303648	355.498821345761	848.468950581943	391.602631677566	571.470957162544	766.783412159927	297.595246986505	636.052673962512	788.294384139662	199.975175356783	567.091252214925	634.721396289003	44.384411977263	536.232968124276	806.780439246955	95.885698799752	571.636516188506	717.819493201492	36.347872422005	610.114691999406	926.355007276006	40.987916888518	598.781736688785	1050.574368119964	44.841464182274	406.578102123579	1119.457393982583	51.725721702644	322.403913170779	1183.088438657102	135.889555295963	334.442637345138	1316.733226207982	117.832929397700	303.532096034881	706.143305131455	1103.713902284776	255.028950314450	658.645133349647	849.050340365685	267.805658244204	1116.761587454922	1132.494958286921	754.799694577370	1354.352220458371	1197.588268998683	690.879993098635	
21	35.531428571429	724.059568451524	1000.489167900883	530.870256816861	849.486064251573	1430.844275705003	333.631468861434	987.790439905784	1360.773556083080	464.908487050221	944.976253052480	1429.120521514139	653.840722530638	865.345013415653	1486.755347567625	487.589625760112	962.114162643974	930.986183252028	608.039052263028	907.221053673914	955.823444582506	338.060318428892	955.544208062450	718.794629788533	578.099054362471	855.425913373654	624.055289935957	645.805028411116	907.584692334442	559.872018082007	559.677773709396	886.078569757755	473.529133240312	563.247544552575	988.395423545047	768.933977578772	365.002051423328	931.813091948434	637.607076803401	299.994137983413	1038.611212300442	580.487722241642	356.324820532885	1066.247404146747	520.046553059151	355.254767150391	1056.083034409407	449.225417430482	347.714210065688	1001.901513068726	311.670882611234	306.006116995801	1102.365588904220	225.106184571950	358.040245403604	845.203754914184	390.412946801620	570.693534250506	762.445682152201	297.550029654121	635.664538501317	782.564503197053	199.544054020724	566.851232742639	627.502078541091	44.865158316600	536.447820821894	799.685455908887	95.933822057833	571.772140150355	710.624808225728	36.436422288036	610.111167786713	919.124147945920	40.667436203166	598.867003279473	1039.646455396496	43.656331988556	410.071375603633	1108.063303448860	48.341355593029	325.328382865192	1174.932872344627	129.534944443856	337.437505853398	1307.530492961284	106.320222462730	305.323574632665	704.825222341289	1102.864262840168	254.474189852867	657.471118756242	848.152280423100	267.459831084119	1118.035606041650	1132.966685173218	752.359332165542	1354.087803838399	1202.936196600411	688.725556749177	
22	35.543500000000	725.198901125129	999.167490151474	528.845949511154	848.366471512040	1429.751961315479	332.125824843569	987.109385894295	1360.357989568116	463.256652510446	944.058311948662	1428.358209154975	652.288639538553	864.117659918707	1485.654558194805	486.125131999061	963.122444936120	929.869324597297	606.570042376946	908.950515210302	954.745587232477	336.376257094834	955.341915538128	717.342874603042	577.061261500239	854.347180222438	623.172885726627	644.622292379620	906.335691507275	558.453053301649	558.774854351237	884.039675005677	471.837214395843	562.279912922393	990.985277866064	768.210266311220	363.500862729271	933.231612205733	635.884960748634	300.262683077847	1040.234774410773	579.122211901410	355.924444644303	1066.712403554239	517.212985081421	355.865773595079	1055.423245736296	445.679079205592	348.945249712605	997.884374122748	309.350876333405	307.769271103659	1095.675699201119	220.536162171811	360.634043805825	842.064281174979	389.182945274407	569.858950707970	758.175782274800	297.527243905403	635.186369459787	776.888001034607	199.131712916428	566.577680586866	620.286872084439	45.462301902153	536.669539511251	792.611412824123	95.996993346748	571.884996141452	703.443567936176	36.589895862813	610.126785625830	911.907359638945	40.331928236867	598.966846474037	1027.381310043760	42.319200338984	413.090445056497	1095.517597097123	44.964583835530	327.942650817048	1165.749020484073	122.904695954530	340.614212621319	1297.303045015510	94.297512322296	307.501512063461	704.016016857540	1101.707653031777	253.655945919405	657.426041757496	846.820016115351	266.609170239822	1118.685220690326	1132.987319695458	750.084376446177	1353.380737801216	1207.010305567572	686.749884695127	
